<svg id="visual" viewBox="0 0 960 540" width="960" height="540" xmlns="http://www.w3.org/2000/svg" xmlns:xlink="http://www.w3.org/1999/xlink" version="1.1"><rect x="0" y="0" width="960" height="540" fill="#001122"></rect><g transform="translate(492.3214772664152 265.56235233335576)"><path d="M132.3 -212.1C160 -188 163.2 -132 170.8 -86.5C178.3 -41 190.1 -6 202.9 41.8C215.7 89.6 229.5 150.3 204.7 175.3C179.8 200.4 116.2 189.9 63.4 196.7C10.5 203.4 -31.6 227.4 -82.9 234.3C-134.2 241.3 -194.6 231.1 -222.1 195C-249.6 158.8 -244.1 96.5 -238.7 42.7C-233.3 -11.1 -228.1 -56.4 -203.5 -85.8C-179 -115.2 -135.1 -128.6 -98 -148.4C-60.8 -168.3 -30.4 -194.7 10.9 -211.7C52.3 -228.7 104.5 -236.3 132.3 -212.1" fill="#f43883"></path></g></svg>