<svg id="visual" viewBox="0 0 960 540" width="960" height="540" xmlns="http://www.w3.org/2000/svg" xmlns:xlink="http://www.w3.org/1999/xlink" version="1.1"><rect x="0" y="0" width="960" height="540" fill="#001220"></rect><defs><linearGradient id="grad1_0" x1="43.8%" y1="0%" x2="100%" y2="100%"><stop offset="14.444444444444446%" stop-color="#fbae3c" stop-opacity="1"></stop><stop offset="85.55555555555554%" stop-color="#fbae3c" stop-opacity="1"></stop></linearGradient></defs><defs><linearGradient id="grad1_1" x1="43.8%" y1="0%" x2="100%" y2="100%"><stop offset="14.444444444444446%" stop-color="#fbae3c" stop-opacity="1"></stop><stop offset="85.55555555555554%" stop-color="#96446e" stop-opacity="1"></stop></linearGradient></defs><defs><linearGradient id="grad1_2" x1="43.8%" y1="0%" x2="100%" y2="100%"><stop offset="14.444444444444446%" stop-color="#001220" stop-opacity="1"></stop><stop offset="85.55555555555554%" stop-color="#96446e" stop-opacity="1"></stop></linearGradient></defs><defs><linearGradient id="grad2_0" x1="0%" y1="0%" x2="56.3%" y2="100%"><stop offset="14.444444444444446%" stop-color="#fbae3c" stop-opacity="1"></stop><stop offset="85.55555555555554%" stop-color="#fbae3c" stop-opacity="1"></stop></linearGradient></defs><defs><linearGradient id="grad2_1" x1="0%" y1="0%" x2="56.3%" y2="100%"><stop offset="14.444444444444446%" stop-color="#96446e" stop-opacity="1"></stop><stop offset="85.55555555555554%" stop-color="#fbae3c" stop-opacity="1"></stop></linearGradient></defs><defs><linearGradient id="grad2_2" x1="0%" y1="0%" x2="56.3%" y2="100%"><stop offset="14.444444444444446%" stop-color="#96446e" stop-opacity="1"></stop><stop offset="85.55555555555554%" stop-color="#001220" stop-opacity="1"></stop></linearGradient></defs><g transform="translate(960, 0)"><path d="M0 162C-17.2 155 -34.4 147.9 -43.9 135.1C-53.3 122.2 -55 103.4 -71.7 98.7C-88.5 94 -120.3 103.2 -131.1 95.2C-141.8 87.2 -131.5 62 -133.1 43.3C-134.8 24.5 -148.4 12.3 -162 0L0 0Z" fill="#3d3056"></path><path d="M0 108C-11.5 103.3 -23 98.6 -29.3 90C-35.5 81.4 -36.6 69 -47.8 65.8C-59 62.6 -80.2 68.8 -87.4 63.5C-94.5 58.2 -87.7 41.3 -88.8 28.8C-89.9 16.3 -98.9 8.2 -108 0L0 0Z" fill="#e1685e"></path><path d="M0 54C-5.7 51.7 -11.5 49.3 -14.6 45C-17.8 40.7 -18.3 34.5 -23.9 32.9C-29.5 31.3 -40.1 34.4 -43.7 31.7C-47.3 29.1 -43.8 20.7 -44.4 14.4C-44.9 8.2 -49.5 4.1 -54 0L0 0Z" fill="#fbae3c"></path></g><g transform="translate(0, 540)"><path d="M0 -162C19.5 -162.7 39.1 -163.3 48.8 -150.3C58.6 -137.2 58.5 -110.5 74.1 -101.9C89.6 -93.4 120.8 -103.1 131.1 -95.2C141.3 -87.3 130.5 -61.8 132.2 -43C133.9 -24.1 147.9 -12.1 162 0L0 0Z" fill="#3d3056"></path><path d="M0 -108C13 -108.4 26.1 -108.9 32.5 -100.2C39 -91.5 39 -73.6 49.4 -68C59.8 -62.3 80.6 -68.8 87.4 -63.5C94.2 -58.2 87 -41.2 88.1 -28.6C89.2 -16.1 98.6 -8 108 0L0 0Z" fill="#e1685e"></path><path d="M0 -54C6.5 -54.2 13 -54.4 16.3 -50.1C19.5 -45.7 19.5 -36.8 24.7 -34C29.9 -31.1 40.3 -34.4 43.7 -31.7C47.1 -29.1 43.5 -20.6 44.1 -14.3C44.6 -8 49.3 -4 54 0L0 0Z" fill="#fbae3c"></path></g></svg>